<?xml version="1.0" encoding="utf-8"?>
<!DOCTYPE svg PUBLIC "-//W3C//DTD SVG 1.1//EN"
  "http://www.w3.org/Graphics/SVG/1.1/DTD/svg11.dtd">
<svg xmlns="http://www.w3.org/2000/svg"
     xmlns:xlink="http://www.w3.org/1999/xlink"
     viewBox="0 0 200 200"
     fill="none">

  <symbol id='logo' xmlns="http://www.w3.org/2000/svg"
       viewBox="0 0 50 50"
       width="50"
       height="50">

    <circle cx="25" cy="25" r="24" fill="#1c1b1a" />

    <path d="M21 25c0-4 4-6 7-6 3 0 5 2 5 4s-2 3-3 3H21
             m-4 0c0 4 4 6 7 6 3 0 5-2 5-4s-2-3-3-3H17"
          stroke="#f7f1e8"
          stroke-width="2"
          fill="none"
          stroke-linecap="round"
          stroke-linejoin="round" />

  </symbol>
  <symbol id="user" xmlns="http://www.w3.org/2000/svg" viewBox="0 0 24 24" >
    <ellipse cx="12" cy="6.5" rx="4" ry="4.5" stroke-width="1.8"/>
    <path d="M20 19C20 22.5 16 21.5 12 21.5C8 21.5 4 22.5 4 19C4 17 7.58172 14.5 12 14.5C16.4183 14.5 20 17 20 19Z" stroke-width="1.8"/>
  </symbol>
</svg>
