<?xml version="1.0" encoding="utf-8"?>
<!DOCTYPE svg PUBLIC "-//W3C//DTD SVG 1.1//EN"
  "http://www.w3.org/Graphics/SVG/1.1/DTD/svg11.dtd">
<svg xmlns="http://www.w3.org/2000/svg"
     xmlns:xlink="http://www.w3.org/1999/xlink"
     viewBox="0 0 200 200"
     fill="none">

  <symbol id='logo' xmlns="http://www.w3.org/2000/svg"
       viewBox="0 0 50 50"
       width="50"
       height="50">

    <circle cx="25" cy="25" r="24" fill="#1c1b1a" />

    <path d="M21 25c0-4 4-6 7-6 3 0 5 2 5 4s-2 3-3 3H21
             m-4 0c0 4 4 6 7 6 3 0 5-2 5-4s-2-3-3-3H17"
          stroke="#f7f1e8"
          stroke-width="2"
          fill="none"
          stroke-linecap="round"
          stroke-linejoin="round" />

  </symbol>
  <symbol id='logo-footer' xmlns="http://www.w3.org/2000/svg"
       viewBox="0 0 50 50"
       width="50"
       height="50">

    <circle cx="25" cy="25" r="24" fill="#f7f1e8" />

    <path d="M21 25c0-4 4-6 7-6 3 0 5 2 5 4s-2 3-3 3H21
             m-4 0c0 4 4 6 7 6 3 0 5-2 5-4s-2-3-3-3H17"
          stroke="#1c1b1a"
          stroke-width="2"
          fill="none"
          stroke-linecap="round"
          stroke-linejoin="round" />

  </symbol>
  <symbol id="user" xmlns="http://www.w3.org/2000/svg" viewBox="0 0 24 24" >
    <ellipse cx="12" cy="6.5" rx="4" ry="4.5" stroke-width="1.8"/>
    <path d="M20 19C20 22.5 16 21.5 12 21.5C8 21.5 4 22.5 4 19C4 17 7.58172 14.5 12 14.5C16.4183 14.5 20 17 20 19Z" stroke-width="1.8"/>
  </symbol>
    <symbol id="instagram" xmlns="http://www.w3.org/2000/svg" viewBox="0 0 40 41" stroke="none">
    <path d="M25.9038 32.621H14.0314C13.7948 32.5791 13.5569 32.5428 13.3216 32.4945C11.8193 32.1963 10.4673 31.3843 9.49723 30.1975C8.52714 29.0107 7.99934 27.523 8.00426 25.9893C7.99754 22.4246 7.99875 18.86 8.00801 15.2954C8.00686 14.8591 8.0479 14.4235 8.13052 13.9951C8.42379 12.4857 9.23437 11.1263 10.4221 10.1517C11.6099 9.1772 13.1002 8.64876 14.6357 8.65763C18.1875 8.65209 21.7393 8.65345 25.2911 8.66182C25.7347 8.65521 26.1777 8.69789 26.6119 8.78906C27.848 9.02263 28.99 9.60996 29.8997 10.4799C30.8094 11.35 31.4478 12.4654 31.7376 13.6912C31.8291 14.0179 31.8694 14.3592 31.9335 14.6936V26.5828C31.8919 26.8187 31.8618 27.0572 31.8071 27.29C31.5704 28.527 30.9822 29.6695 30.1133 30.5802C29.2443 31.4908 28.1314 32.1311 26.9081 32.4241C26.5808 32.5162 26.2389 32.5566 25.9038 32.621ZM19.9672 10.8022V10.7914C18.23 10.7914 16.4928 10.7911 14.7556 10.7907C14.2261 10.7812 13.6985 10.8579 13.1934 11.0175C12.2849 11.3276 11.4983 11.9189 10.9473 12.706C10.3963 13.4931 10.1095 14.4353 10.1284 15.3963C10.1516 18.891 10.1351 22.3859 10.1341 25.8808C10.1262 26.4033 10.2026 26.9237 10.3605 27.4218C10.6702 28.3316 11.2607 29.1193 12.0467 29.671C12.8326 30.2228 13.7734 30.5101 14.733 30.4915C18.2228 30.4682 21.7129 30.4846 25.2028 30.4856C25.7246 30.4939 26.2442 30.4174 26.7415 30.2589C27.6469 29.9512 28.4314 29.3638 28.982 28.5811C29.5327 27.7985 29.821 26.861 29.8057 25.9037C29.7867 22.3933 29.7986 18.8828 29.8021 15.3723C29.8222 14.6289 29.6528 13.8926 29.3101 13.2329C28.9691 12.5206 28.4372 11.9172 27.7735 11.4903C27.1098 11.0634 26.3407 10.8298 25.552 10.8155C23.692 10.7576 21.8289 10.8022 19.9672 10.8022Z"/>
    <path d="M25.9511 20.6269C25.9526 21.8122 25.6029 22.9713 24.9464 23.9576C24.2899 24.9438 23.356 25.7129 22.2629 26.1676C21.1698 26.6223 19.9667 26.7421 18.8056 26.5119C17.6445 26.2817 16.5776 25.7118 15.74 24.8743C14.9024 24.0368 14.3317 22.9693 14.1001 21.8069C13.8684 20.6445 13.9863 19.4396 14.4387 18.3443C14.8911 17.249 15.6577 16.3126 16.6416 15.6537C17.6255 14.9948 18.7824 14.643 19.9661 14.6426C21.5508 14.646 23.0698 15.2772 24.1913 16.3985C25.3127 17.5198 25.9454 19.04 25.9511 20.6269ZM19.9751 24.5503C20.7483 24.5488 21.5037 24.3179 22.1459 23.8866C22.7881 23.4553 23.2881 22.8432 23.5829 22.1274C23.8777 21.4116 23.954 20.6242 23.8021 19.8651C23.6502 19.1059 23.277 18.4089 22.7297 17.8621C22.1823 17.3152 21.4854 16.943 20.7269 16.7928C19.9684 16.6425 19.1824 16.7207 18.4683 17.0176C17.7542 17.3145 17.144 17.8166 16.7149 18.4607C16.2857 19.1047 16.0568 19.8618 16.0572 20.636C16.0563 21.1511 16.1571 21.6613 16.3538 22.1372C16.5505 22.6131 16.8391 23.0454 17.2032 23.4092C17.5674 23.7729 17.9997 24.061 18.4754 24.2569C18.9511 24.4527 19.4608 24.5524 19.9751 24.5503Z"/>
    <path d="M26.4582 15.6463C26.0619 15.6486 25.6808 15.4934 25.3987 15.2147C25.1165 14.936 24.9563 14.5567 24.9532 14.1599C24.951 13.8635 25.0365 13.5732 25.1991 13.3256C25.3617 13.0779 25.594 12.884 25.8666 12.7686C26.1392 12.6532 26.4398 12.6214 26.7304 12.6772C27.0211 12.733 27.2887 12.8738 27.4995 13.0819C27.7102 13.29 27.8545 13.5561 27.9142 13.8463C27.9738 14.1366 27.9462 14.438 27.8347 14.7125C27.7232 14.987 27.5329 15.2224 27.2879 15.3886C27.0429 15.5548 26.7541 15.6445 26.4582 15.6463Z"/>
  </symbol>
  <symbol id="facebook" xmlns="http://www.w3.org/2000/svg" viewBox="0 0 40 41" stroke="none">
    <path d="M16.3765 32.6875C16.3832 28.8967 16.3898 25.106 16.3965 21.3153C16.3968 21.1209 16.3965 20.9265 16.3965 20.667H14V16.5642H16.3988C16.3988 16.0484 16.3741 15.5905 16.4038 15.1363C16.4196 14.0904 16.5097 13.0471 16.6734 12.0145C16.8195 11.1148 17.272 10.2959 17.9518 9.70042C18.6316 9.10486 19.4956 8.77052 20.3932 8.75578C21.7577 8.65422 23.6328 8.6543 25 8.6543V12.7957C24.6269 12.7957 24.3217 12.7928 24.0166 12.7963C23.4741 12.8024 22.9309 12.7963 22.3895 12.8249C21.769 12.8577 21.3842 13.147 21.3479 13.7392C21.2917 14.6544 21.333 15.5759 21.333 16.5539H24.9815L24.5512 20.637H21.3192V32.6876L16.3765 32.6875Z"/>
  </symbol>
    <symbol id="tik-tok" xmlns="http://www.w3.org/2000/svg" viewBox="0 0 40 41" stroke="none">
    <path d="M29.8492 13.8082C28.7034 13.5733 27.6658 12.9936 26.8878 12.1538C26.1097 11.3139 25.6318 10.2578 25.5238 9.13933V8.6543H21.5712V23.6915C21.5687 24.3572 21.3488 25.0055 20.9422 25.5452C20.5356 26.0849 19.9628 26.4889 19.3043 26.7004C18.6459 26.9119 17.9348 26.9204 17.2711 26.7246C16.6074 26.5287 16.0243 26.1384 15.6039 25.6086C15.177 25.0698 14.9401 24.4148 14.9277 23.7383C14.9153 23.0618 15.1281 22.3992 15.535 21.8464C15.942 21.2937 16.522 20.8795 17.1911 20.6641C17.8601 20.4486 18.5833 20.4431 19.2559 20.6482V16.7987C17.7561 16.6 16.2291 16.8556 14.8884 17.5298C13.5476 18.204 12.4602 19.263 11.7783 20.5588C11.0964 21.8546 10.854 23.3223 11.0851 24.7566C11.3162 26.191 12.0092 27.5202 13.0671 28.5584C14.0761 29.548 15.3697 30.2269 16.783 30.5086C18.1962 30.7902 19.665 30.6617 21.0017 30.1396C22.3385 29.6174 23.4826 28.7253 24.288 27.577C25.0935 26.4287 25.5237 25.0764 25.5238 23.6926V16.009C27.1211 17.1038 29.0364 17.6908 31 17.6874V13.9226C30.6133 13.9231 30.2276 13.8847 29.8492 13.8082Z"/>
  </symbol>
  <symbol id="chevron" xmlns="http://www.w3.org/2000/svg" viewBox="0 0 24 24" fill="none">
    <path d="M9 5L16 12L9 19" stroke-width="2" stroke-linecap="round" stroke-linejoin="round" />
  </symbol>
    <symbol id="exit" viewBox="0 0 25 24" fill="none" xmlns="http://www.w3.org/2000/svg">
    <path
      d="M11.5 3L10.8374 3.23384C8.25867 4.144 6.96928 4.59908 6.23464 5.63742C5.5 6.67576 5.5 8.0431 5.5 10.7778V13.2222C5.5 15.9569 5.5 17.3242 6.23464 18.3626C6.96928 19.4009 8.25867 19.856 10.8374 20.7662L11.5 21"
      stroke-width="1.5" stroke-linecap="round" />
    <path
      d="M21.5 12H11.5M21.5 12C21.5 11.2998 19.5057 9.99153 19 9.5M21.5 12C21.5 12.7002 19.5057 14.0085 19 14.5"
      stroke-width="1.5" stroke-linecap="round" stroke-linejoin="round" />
  </symbol>
</svg>
